<svg aria-hidden="true" style="position: absolute; width: 0; height: 0; overflow: hidden;" version="1.1" xmlns="http://www.w3.org/2000/svg" xmlns:xlink="http://www.w3.org/1999/xlink">
<defs>
<symbol id="icon-trophy" viewBox="0 0 32 32">
<path d="M21 25h3v4h-15v-4h3v-3h4v-4c-3.309-0.003-6-2.685-6-5.993v-0.007c-3.5-1.5-4-9-4-9h21c0 0-0.5 7.5-4 9v0.007c0 3.31-2.686 5.99-6 5.993v4h4v3zM11 4v7.992c0 2.766 2.239 5.008 5.001 5.008h0.998c2.762 0 5.001-2.235 5.001-5.008v-7.992h-11zM10 4h-2.9c0 0 0.554 5.221 2.9 6.9v-6.9zM22.982 4v6.88c2.346-1.679 2.9-6.88 2.9-6.88h-2.9zM13 23v2h7v-2h-7zM10 26v2h13v-2h-13z"></path>
</symbol>
<symbol id="icon-trophy1" viewBox="0 0 32 32">
<path d="M21 25v-3h-4v-4c3.314-0.003 6-2.683 6-5.993v-0.007c3.5-1.5 4-9 4-9h-21c0 0 0.5 7.5 4 9v0.007c0 3.308 2.691 5.99 6 5.993v4h-4v3h-3v4h15v-4h-3zM10 4v6.9c-2.346-1.679-2.9-6.9-2.9-6.9h2.9zM22.982 4h2.9c0 0-0.555 5.201-2.9 6.88v-6.88z"></path>
</symbol>
<symbol id="icon-award" viewBox="0 0 32 32">
<path d="M16.007 20l-4.406 11.477-1.726-3.876-3.876 1.726 4.353-11.34c-2.030-1.65-3.327-4.167-3.327-6.987 0-4.971 4.029-9 9-9s9 4.029 9 9c0 2.82-1.297 5.337-3.327 6.987l4.353 11.34-3.876-1.726-1.726 3.876-4.406-11.477c-0.006 0-0.013 0-0.019 0s-0.013 0-0.019-0v0 0zM14.96 19.938v0 0c-1.375-0.162-2.655-0.634-3.768-1.345l-3.398 8.852 2.584-1.15 1.15 2.584 3.432-8.941zM20.86 18.593v0 0c-1.113 0.71-2.393 1.183-3.768 1.345l3.432 8.941 1.15-2.584 2.584 1.15-3.398-8.852zM16.026 19c4.418 0 8-3.582 8-8s-3.582-8-8-8c-4.418 0-8 3.582-8 8s3.582 8 8 8v0zM16.026 17v0c-3.314 0-6-2.686-6-6s2.686-6 6-6c3.314 0 6 2.686 6 6s-2.686 6-6 6zM16.026 16c2.761 0 5-2.239 5-5s-2.239-5-5-5c-2.761 0-5 2.239-5 5s2.239 5 5 5v0z"></path>
</symbol>
<symbol id="icon-award1" viewBox="0 0 32 32">
<path d="M15.626 20.992l-4.025 10.485-1.726-3.876-3.876 1.726 3.978-10.363c1.581 1.202 3.53 1.945 5.648 2.028v0zM22.074 18.964l3.978 10.363-3.876-1.726-1.726 3.876-4.025-10.485c2.119-0.083 4.068-0.826 5.648-2.028v0 0zM16.026 20v0c-4.971 0-9-4.029-9-9s4.029-9 9-9c4.971 0 9 4.029 9 9s-4.029 9-9 9zM16.026 17c3.314 0 6-2.686 6-6s-2.686-6-6-6c-3.314 0-6 2.686-6 6s2.686 6 6 6v0zM16.026 16c2.761 0 5-2.239 5-5s-2.239-5-5-5c-2.761 0-5 2.239-5 5s2.239 5 5 5v0z"></path>
</symbol>
<symbol id="icon-target-arrow" viewBox="0 0 32 32">
<path d="M9 23.771l-1 1v3.229h-1v-2.229l-1.293 1.293-0.707-0.707 1.357-1.357h-2.357v-1h3.357l1-1h-2.357v-1h3.357l5.322-5.322-0.678-0.678 3-1-1 3-0.614-0.614-5.386 5.386v3.229h-1v-2.229zM7.779 21c-1.125-1.726-1.779-3.786-1.779-6 0-6.075 4.925-11 11-11s11 4.925 11 11c0 6.075-4.925 11-11 11-2.214 0-4.274-0.654-6-1.779v-1.072l0.085-0.085c1.656 1.217 3.702 1.936 5.915 1.936 5.523 0 10-4.477 10-10s-4.477-10-10-10c-5.523 0-10 4.477-10 10 0 2.227 0.728 4.285 1.96 5.947l-0.053 0.053h-1.128zM14.003 15.142c-0.002-0.047-0.003-0.094-0.003-0.142 0-1.657 1.343-3 3-3s3 1.343 3 3c0 1.657-1.343 3-3 3-0.048 0-0.095-0.001-0.142-0.003l0.282-0.988 0.015-0.015c1.032-0.079 1.845-0.942 1.845-1.994 0-1.105-0.895-2-2-2-1.056 0-1.921 0.818-1.995 1.856l-1.002 0.286zM11.115 18.792c-0.705-1.093-1.115-2.394-1.115-3.792 0-3.866 3.134-7 7-7s7 3.134 7 7c0 3.866-3.134 7-7 7-1.383 0-2.672-0.401-3.758-1.093l0.727-0.727c0.889 0.521 1.925 0.82 3.030 0.82 3.314 0 6-2.686 6-6s-2.686-6-6-6c-3.314 0-6 2.686-6 6 0 1.12 0.307 2.168 0.841 3.065l-0.726 0.726z"></path>
</symbol>
<symbol id="icon-target-arrow1" viewBox="0 0 32 32">
<path d="M9 23.771l-1 1v3.229h-1v-2.229l-1.293 1.293-0.707-0.707 1.357-1.357h-2.357v-1h3.357l1-1h-2.357v-1h3.357l5.322-5.322-0.678-0.678 3-1-1 3-0.614-0.614-5.386 5.386v3.229h-1v-2.229zM7.779 21c-1.125-1.726-1.779-3.786-1.779-6 0-6.075 4.925-11 11-11s11 4.925 11 11c0 6.075-4.925 11-11 11-2.214 0-4.274-0.654-6-1.779v-1.072l2.242-2.242c1.086 0.692 2.375 1.093 3.758 1.093 3.866 0 7-3.134 7-7s-3.134-7-7-7c-3.866 0-7 3.134-7 7 0 1.397 0.409 2.699 1.115 3.792l-2.208 2.208h-1.128zM15.497 18.652l-1.527 1.527c0.889 0.521 1.925 0.82 3.030 0.82 3.314 0 6-2.686 6-6s-2.686-6-6-6c-3.314 0-6 2.686-6 6 0 1.12 0.307 2.168 0.841 3.065v0l1.526-1.526-0.951-0.944 1.588-0.454c-0.002-0.047-0.003-0.094-0.003-0.142 0-1.657 1.343-3 3-3s3 1.343 3 3c0 1.657-1.343 3-3 3-0.048 0-0.095-0.001-0.142-0.003l-0.447 1.563-0.915-0.907zM17.144 16.995c1.037-0.074 1.856-0.939 1.856-1.995 0-1.105-0.895-2-2-2-1.056 0-1.921 0.818-1.995 1.856l2.995-0.856-0.856 2.995z"></path>
</symbol>
<symbol id="icon-flashed-face" viewBox="0 0 32 32">
<path d="M16.5 29v0c-6.904 0-12.5-5.596-12.5-12.5s5.596-12.5 12.5-12.5c6.904 0 12.5 5.596 12.5 12.5s-5.596 12.5-12.5 12.5zM16.5 28c6.351 0 11.5-5.149 11.5-11.5s-5.149-11.5-11.5-11.5c-6.351 0-11.5 5.149-11.5 11.5s5.149 11.5 11.5 11.5v0zM12 16v0c-1.657 0-3-1.343-3-3s1.343-3 3-3c1.657 0 3 1.343 3 3s-1.343 3-3 3zM12 15c1.105 0 2-0.895 2-2s-0.895-2-2-2c-1.105 0-2 0.895-2 2s0.895 2 2 2v0zM21 16v0c-1.657 0-3-1.343-3-3s1.343-3 3-3c1.657 0 3 1.343 3 3s-1.343 3-3 3zM21 15c1.105 0 2-0.895 2-2s-0.895-2-2-2c-1.105 0-2 0.895-2 2s0.895 2 2 2v0zM12 14c0.552 0 1-0.448 1-1s-0.448-1-1-1c-0.552 0-1 0.448-1 1s0.448 1 1 1v0zM21 14c0.552 0 1-0.448 1-1s-0.448-1-1-1c-0.552 0-1 0.448-1 1s0.448 1 1 1v0zM14 21v1h5v-1h-5z"></path>
</symbol>
<symbol id="icon-laughing-face" viewBox="0 0 32 32">
<path d="M16.5 29v0c-6.904 0-12.5-5.596-12.5-12.5s5.596-12.5 12.5-12.5c6.904 0 12.5 5.596 12.5 12.5s-5.596 12.5-12.5 12.5zM16.5 28c6.351 0 11.5-5.149 11.5-11.5s-5.149-11.5-11.5-11.5c-6.351 0-11.5 5.149-11.5 11.5s5.149 11.5 11.5 11.5v0zM18.672 13.793l2.828-2.828 2.828 2.828-0.707 0.707-2.121-2.121-2.121 2.121-0.707-0.707zM8.672 13.793l2.828-2.828 2.828 2.828-0.707 0.707-2.121-2.121-2.121 2.121-0.707-0.707zM9 19h15c0 0-1 6-7.5 6s-7.5-6-7.5-6zM10.345 20c0 0 1.287 4.013 6.18 4.013s6.118-4.013 6.118-4.013h-12.298z"></path>
</symbol>
<symbol id="icon-thumb-up" viewBox="0 0 32 32">
<path d="M19.249 30h4.254c1.379 0 2.498-1.11 2.498-2.5 0-0.563-0.187-1.082-0.502-1.5 1.382-0.003 2.502-1.112 2.502-2.5 0-0.636-0.236-1.216-0.628-1.657v0c0.951-0.353 1.628-1.263 1.628-2.343 0-0.636-0.236-1.216-0.628-1.657 0.951-0.353 1.628-1.263 1.628-2.343 0-1.381-1.115-2.5-2.508-2.5h-5.992c1.049-5.017 0.547-11-3.5-11s-1.934 4.788-3.5 7.763c-1.566 2.975-4.5 3.237-4.5 3.237h-6.005c-1.102 0-1.995 0.893-1.995 1.992v11.016c0 1.1 0.887 1.992 1.998 1.992h6.002l6 2h3.249zM10.5 14c0 0 3.305-0.724 4.871-3.699s-0.242-7.301 2.629-7.301c3.151 0 3.501 5.5 2.3 11v0h7.207c0.829 0 1.493 0.672 1.493 1.5 0 0.834-0.668 1.5-1.493 1.5h-3.507v1h2.507c0.829 0 1.493 0.672 1.493 1.5 0 0.834-0.668 1.5-1.493 1.5h-3.507v1h2.507c0.829 0 1.493 0.672 1.493 1.5 0 0.834-0.668 1.5-1.493 1.5h-3.507v1h1.498c0.831 0 1.502 0.672 1.502 1.5 0 0.834-0.672 1.5-1.502 1.5h-7.498l-6-2h-5.997c-0.565 0-1.003-0.447-1.003-0.998v-11.003c0-0.551 0.448-0.998 1-0.998h6.5z"></path>
</symbol>
<symbol id="icon-thumb-down" viewBox="0 0 32 32">
<path d="M19.249 2h4.254c1.379 0 2.498 1.11 2.498 2.5 0 0.563-0.187 1.082-0.502 1.5 1.382 0.003 2.502 1.112 2.502 2.5 0 0.636-0.236 1.216-0.628 1.657v0c0.951 0.353 1.628 1.263 1.628 2.343 0 0.636-0.236 1.216-0.628 1.657 0.951 0.353 1.628 1.263 1.628 2.343 0 1.381-1.115 2.5-2.508 2.5h-5.992c1.049 5.017 0.547 11-3.5 11s-1.934-4.788-3.5-7.763c-1.566-2.975-4.5-3.237-4.5-3.237h-6.005c-1.102 0-1.995-0.893-1.995-1.992v-11.016c0-1.1 0.887-1.992 1.998-1.992h6.002l6-2h3.249zM10.5 18c0 0 3.305 0.724 4.871 3.699s-0.242 7.301 2.629 7.301c3.151 0 3.501-5.5 2.3-11v0h7.207c0.829 0 1.493-0.672 1.493-1.5 0-0.834-0.668-1.5-1.493-1.5h-3.507v-1h2.507c0.829 0 1.493-0.672 1.493-1.5 0-0.834-0.668-1.5-1.493-1.5h-3.507v-1h2.507c0.829 0 1.493-0.672 1.493-1.5 0-0.834-0.668-1.5-1.493-1.5h-3.507v-1h1.498c0.831 0 1.502-0.672 1.502-1.5 0-0.834-0.672-1.5-1.502-1.5h-7.498l-6 2h-5.997c-0.565 0-1.003 0.447-1.003 0.998v11.003c0 0.551 0.448 0.998 1 0.998h6.5z"></path>
</symbol>
<symbol id="icon-trophy2" viewBox="0 0 32 32">
<path d="M26 6v-4h-20v4h-6v4c0 3.314 2.686 6 6 6 0.627 0 1.232-0.096 1.801-0.275 1.443 2.063 3.644 3.556 6.199 4.075v6.2h-2c-2.209 0-4 1.791-4 4h16c0-2.209-1.791-4-4-4h-2v-6.2c2.555-0.519 4.756-2.012 6.199-4.075 0.568 0.179 1.173 0.275 1.801 0.275 3.314 0 6-2.686 6-6v-4h-6zM6 13.625c-1.999 0-3.625-1.626-3.625-3.625v-2h3.625v2c0 1.256 0.232 2.457 0.655 3.565-0.213 0.039-0.431 0.060-0.655 0.060zM29.625 10c0 1.999-1.626 3.625-3.625 3.625-0.224 0-0.442-0.021-0.655-0.060 0.423-1.107 0.655-2.309 0.655-3.565v-2h3.625v2z"></path>
</symbol>
</defs>
</svg>
